<svg xmlns="http://www.w3.org/2000/svg" viewBox="0 0 64 64" role="img" aria-label="Bug OS">
  <rect width="64" height="64" rx="16" fill="#ff4801"/>
  <path d="M25 20a7 7 0 0 1 14 0" fill="none" stroke="#fff" stroke-width="5" stroke-linecap="round"/>
  <rect x="20" y="20" width="24" height="32" rx="12" fill="#fff"/>
  <path d="M32 27v25M18 27h-8M18 36H8M18 45h-8M46 27h8M46 36h10M46 45h8" fill="none" stroke="#fff" stroke-width="5" stroke-linecap="round"/>
  <path d="M20 24h12v28a12 12 0 0 1-12-12V24Zm24 0H32v28a12 12 0 0 0 12-12V24Z" fill="#fff"/>
  <circle cx="27" cy="28" r="2.5" fill="#ff4801"/>
  <circle cx="37" cy="28" r="2.5" fill="#ff4801"/>
</svg>
